<svg xmlns="http://www.w3.org/2000/svg" version="1.1" xmlns:xlink="http://www.w3.org/1999/xlink" xmlns:svgjs="http://svgjs.dev/svgjs" width="1500" height="1311" viewBox="0 0 1500 1311"><g transform="matrix(1,0,0,1,-0.8098241273610256,0.40091743119273815)"><svg viewBox="0 0 374 327" data-background-color="#ffffff" preserveAspectRatio="xMidYMid meet" height="1311" width="1500" xmlns="http://www.w3.org/2000/svg" xmlns:xlink="http://www.w3.org/1999/xlink"><g id="tight-bounds" transform="matrix(1,0,0,1,0.2019161490886745,-0.10000000000002274)"><svg viewBox="0 0 373.59616770182265 327.2" height="327.2" width="373.59616770182265"><g><svg viewBox="0 0 395.52 346.40115501208504" height="327.2" width="373.59616770182265"><g transform="matrix(1,0,0,1,0,178.2767179257819)"><svg viewBox="0 0 395.52 168.12443708630317" height="168.12443708630317" width="395.52"><g id="textblocktransform"><svg viewBox="0 0 395.52 168.12443708630317" height="168.12443708630317" width="395.52" id="textblock"><g><svg viewBox="0 0 395.52 168.12443708630317" height="168.12443708630317" width="395.52"><g transform="matrix(1,0,0,1,0,0)"><svg width="395.52" viewBox="-3.5319194190993395 -18.453774358545346 112.20114663722777 47.693573666555835" height="168.12443708630317" data-palette-color="#000000"><path d="M2.193 14.452l3.266 4.806 0.653-0.51-3.266-4.805c-0.018-0.044-0.067-0.082-0.147-0.115-0.08-0.033-0.157-0.047-0.232-0.042v0l-5.657 1.132 0.114 0.826 5.648-1.136c0.093-0.034 0.044-0.09-0.147-0.168-0.191-0.079-0.269-0.075-0.232 0.012zM32.745-4.752l-3.22-4.786-0.653 0.509 3.22 4.787c0.049 0.056 0.114 0.101 0.194 0.134 0.08 0.033 0.142 0.04 0.185 0.022v0l5.703-1.113-0.114-0.825-5.694 1.116c-0.081 0.003-0.025 0.044 0.166 0.122 0.191 0.079 0.262 0.09 0.213 0.034zM13.96-13.049l-3.409-4.302-0.663 0.506 3.418 4.306c0.049 0.056 0.125 0.098 0.229 0.126 0.1 0.02 0.172 0.02 0.216 0.003v0l4.025-1.241-0.235-0.768-4.026 1.241c-0.081 0.003-0.013 0.041 0.201 0.115 0.217 0.068 0.298 0.072 0.244 0.014zM21.078 22.509l2.884 4.367 0.653-0.51-2.884-4.367c-0.036-0.087-0.11-0.135-0.222-0.145-0.105-0.007-0.204 0.006-0.297 0.04v0l-3.598 1.698 0.376 0.717 3.597-1.698c0.087-0.036 0.007-0.087-0.24-0.153-0.253-0.068-0.343-0.051-0.269 0.051zM13.249-12.952l-11.113 26.991 0.767 0.316 11.114-26.991c0.079-0.191-0.047-0.297-0.378-0.318-0.322-0.024-0.451 0.07-0.387 0.284v0c0.407 1.357 0.842 2.92 1.303 4.689 0.461 1.769 0.962 4.03 1.501 6.782v0 0 0 0l2.78 13.971v0 0 0c0.483 2.434 0.903 4.373 1.26 5.818 0.348 1.448 0.654 2.71 0.918 3.785v0c0.048 0.164 0.167 0.26 0.357 0.287 0.193 0.022 0.329-0.063 0.408-0.254v0l11.014-26.751-0.758-0.312-11.015 26.751c-0.079 0.191 0.047 0.29 0.376 0.296 0.335 0.008 0.465-0.079 0.389-0.262v0c-0.264-1.075-0.556-2.327-0.876-3.756-0.323-1.438-0.741-3.34-1.251-5.707v0 0 0 0l-2.781-13.971v0 0 0c-0.557-2.796-1.072-5.092-1.544-6.886-0.466-1.792-0.903-3.367-1.31-4.725v0c-0.066-0.207-0.192-0.313-0.377-0.317-0.186-0.004-0.318 0.089-0.397 0.28zM21.817 22.316l1.215-11.882-0.834-0.127-1.216 11.882zM13.042-1.207l1.013-11.522-0.848-0.122-1 11.517zM24.711 26.687v0c0.119-0.657 0.264-1.351 0.435-2.081 0.171-0.73 0.458-1.672 0.86-2.825 0.397-1.156 0.969-2.687 1.718-4.592 0.748-1.905 1.744-4.368 2.988-7.389v0c1.165-2.83 2.145-5.14 2.941-6.932 0.789-1.795 1.453-3.23 1.989-4.307 0.54-1.083 1.029-1.905 1.47-2.467 0.434-0.564 0.853-1.022 1.258-1.374v0c0.128-0.135 0.183-0.271 0.168-0.407-0.016-0.136-0.104-0.238-0.265-0.303v0l-8.914-3.671c-0.129-0.053-0.257-0.041-0.383 0.037-0.126 0.078-0.191 0.21-0.195 0.396v0c0.076 0.55 0.064 1.176-0.037 1.877-0.107 0.698-0.351 1.622-0.73 2.771-0.377 1.143-0.914 2.63-1.611 4.463-0.697 1.833-1.628 4.164-2.793 6.993v0l-1.374 3.338 0.792 0.099-4.952-24.403c-0.048-0.164-0.133-0.271-0.257-0.322v0l-7.443-3.065c-0.129-0.053-0.257-0.041-0.383 0.037-0.12 0.081-0.182 0.214-0.186 0.399v0c0.07 0.548 0.054 1.172-0.047 1.873-0.101 0.701-0.341 1.626-0.721 2.775-0.383 1.14-0.923 2.626-1.62 4.459-0.697 1.833-1.628 4.164-2.792 6.994v0c-1.231 2.99-2.267 5.436-3.109 7.339-0.841 1.903-1.541 3.428-2.1 4.575-0.565 1.144-1.061 2.007-1.487 2.588-0.429 0.587-0.868 1.066-1.317 1.437v0c-0.115 0.104-0.162 0.236-0.141 0.396 0.029 0.156 0.109 0.261 0.238 0.315v0l8.914 3.67c0.16 0.066 0.297 0.05 0.409-0.048 0.121-0.102 0.174-0.231 0.16-0.388v0c-0.026-0.566 0.009-1.211 0.105-1.936 0.094-0.718 0.343-1.683 0.748-2.893 0.405-1.21 0.978-2.787 1.721-4.731 0.743-1.944 1.729-4.41 2.96-7.4v0l1.276-3.098-0.789-0.108 5.174 25.23c0.042 0.161 0.127 0.269 0.257 0.322v0l6.482 2.669c0.129 0.053 0.253 0.05 0.371-0.01 0.121-0.066 0.191-0.166 0.212-0.302zM23.867 26.556v0l0.573-0.316-6.482-2.669 0.257 0.322-5.178-25.22c-0.057-0.211-0.185-0.329-0.384-0.353-0.193-0.022-0.329 0.063-0.408 0.254v0l-1.275 3.097c-1.256 3.051-2.266 5.574-3.029 7.567-0.769 1.99-1.343 3.603-1.722 4.839-0.381 1.242-0.622 2.238-0.723 2.99-0.109 0.755-0.152 1.419-0.128 1.991v0l0.569-0.436-8.914-3.67 0.097 0.71c0.451-0.377 0.897-0.874 1.339-1.493 0.439-0.612 0.961-1.493 1.564-2.643 0.601-1.144 1.332-2.692 2.194-4.645 0.855-1.955 1.911-4.458 3.168-7.509v0c1.19-2.891 2.147-5.277 2.87-7.156 0.717-1.882 1.253-3.41 1.607-4.584 0.354-1.174 0.585-2.12 0.693-2.84 0.106-0.713 0.132-1.362 0.077-1.947v0l-0.569 0.436 7.444 3.065-0.266-0.326 4.961 24.407c0.057 0.211 0.185 0.329 0.385 0.353 0.193 0.022 0.329-0.063 0.407-0.254v0l1.375-3.338c1.19-2.891 2.144-5.278 2.861-7.16 0.723-1.879 1.262-3.406 1.615-4.58 0.354-1.174 0.585-2.12 0.694-2.839 0.106-0.713 0.132-1.362 0.077-1.948v0l-0.569 0.437 8.914 3.67-0.097-0.711c-0.42 0.389-0.853 0.871-1.298 1.445-0.442 0.582-0.95 1.415-1.525 2.497-0.575 1.082-1.271 2.544-2.087 4.386-0.81 1.844-1.81 4.211-3 7.103v0c-1.256 3.051-2.263 5.539-3.019 7.462-0.753 1.918-1.335 3.462-1.746 4.635-0.408 1.166-0.698 2.124-0.87 2.875-0.176 0.742-0.327 1.441-0.452 2.096zM52.251 25.12v0c-2.54-0.013-4.77-0.638-6.69-1.876-1.92-1.23-3.418-2.931-4.493-5.103-1.069-2.166-1.595-4.695-1.58-7.589v0 0 0 0c0.015-2.887 0.568-5.41 1.659-7.571 1.098-2.161 2.613-3.83 4.547-5.006 1.933-1.177 4.169-1.758 6.709-1.745v0 0 0 0c2.547 0.013 4.78 0.628 6.7 1.845 1.914 1.21 3.408 2.895 4.484 5.054 1.069 2.152 1.595 4.672 1.58 7.558v0 0 0 0c-0.015 2.893-0.568 5.417-1.659 7.572-1.098 2.161-2.61 3.846-4.537 5.056-1.933 1.217-4.173 1.818-6.72 1.805v0 0zM52.247 25.94v0 0 0 0c2.68 0.014 5.047-0.61 7.1-1.873 2.053-1.263 3.673-3.041 4.858-5.335 1.179-2.301 1.776-4.981 1.792-8.04v0 0 0 0c0.016-3.06-0.553-5.726-1.708-8-1.161-2.273-2.762-4.051-4.802-5.335-2.04-1.284-4.4-1.933-7.08-1.947v0 0 0 0c-2.68-0.014-5.047 0.6-7.099 1.843-2.053 1.243-3.669 3.004-4.848 5.284-1.179 2.281-1.776 4.951-1.792 8.011v0 0 0 0c-0.016 3.06 0.553 5.746 1.707 8.059 1.155 2.306 2.752 4.101 4.792 5.385 2.04 1.284 4.4 1.933 7.08 1.948zM52.268 21.87v0c-2.68-0.014-4.831-1.032-6.454-3.054-1.623-2.022-2.425-4.769-2.406-8.243v0c0.018-3.473 0.849-6.192 2.492-8.157 1.644-1.971 3.806-2.95 6.486-2.936v0c2.68 0.014 4.831 1.015 6.454 3.004 1.623 1.982 2.425 4.709 2.407 8.183v0c-0.018 3.473-0.849 6.212-2.493 8.217-1.644 2.005-3.806 3-6.486 2.986zM52.234 28.42v0c-3.267-0.017-6.159-0.799-8.678-2.346-2.519-1.54-4.484-3.657-5.897-6.351-1.413-2.687-2.11-5.751-2.091-9.191v0c0.018-3.433 0.747-6.479 2.188-9.139 1.441-2.659 3.428-4.739 5.963-6.239 2.535-1.5 5.435-2.241 8.701-2.224v0c3.267 0.017 6.159 0.789 8.678 2.316 2.519 1.527 4.484 3.627 5.897 6.301 1.413 2.674 2.11 5.728 2.092 9.161v0c-0.018 3.44-0.747 6.496-2.188 9.168-1.441 2.679-3.428 4.775-5.963 6.289-2.535 1.52-5.435 2.271-8.702 2.255zM52.264 22.69v0c2.887 0.015 5.239-1.046 7.057-3.183 1.818-2.144 2.737-5.089 2.756-8.836v0c0.019-3.713-0.868-6.638-2.664-8.774-1.795-2.143-4.136-3.222-7.023-3.237v0c-2.887-0.015-5.239 1.029-7.056 3.133-1.818 2.104-2.736 5.029-2.756 8.776v0c-0.02 3.747 0.868 6.701 2.663 8.864 1.795 2.156 4.136 3.242 7.023 3.257zM52.23 29.239v0c3.407 0.018 6.437-0.766 9.092-2.352 2.655-1.579 4.747-3.768 6.275-6.567 1.528-2.792 2.302-5.995 2.32-9.608v0c0.019-3.607-0.721-6.807-2.219-9.602-1.499-2.795-3.567-4.989-6.206-6.582-2.638-1.594-5.661-2.4-9.067-2.418v0c-3.4-0.018-6.427 0.756-9.083 2.322-2.662 1.566-4.756 3.738-6.284 6.517-1.521 2.779-2.291 5.971-2.31 9.578v0c-0.019 3.613 0.718 6.824 2.209 9.632 1.499 2.815 3.57 5.025 6.215 6.633 2.638 1.614 5.657 2.43 9.058 2.447zM77.676 7.442l-5.11-13.334-0.775 0.297 5.11 13.334v0 0 0l5.15 13.437 0.775-0.297-5.15-13.437v0 0zM83.067 2.506l5.867-14.393-0.765-0.264-5.854 14.399v0 0 0c-0.409 0.963-0.826 1.73-1.25 2.3-0.424 0.57-0.942 1.043-1.555 1.42-0.61 0.384-1.401 0.797-2.373 1.242v0c-0.243 0.129-0.309 0.311-0.197 0.547 0.105 0.238 0.27 0.314 0.494 0.228v0c1.486-0.648 2.678-1.005 3.574-1.07 0.896-0.065 1.923 0.212 3.082 0.832v0 0 0 0l14.526 7.359 0.392-0.707-14.522-7.35v0 0 0c-1.296-0.681-2.449-0.996-3.457-0.945-1.012 0.06-2.31 0.428-3.892 1.106v0c-0.243 0.129-0.309 0.311-0.197 0.547 0.105 0.238 0.27 0.314 0.494 0.228v0c1.038-0.476 1.891-0.925 2.558-1.345 0.667-0.42 1.235-0.952 1.702-1.595 0.476-0.639 0.933-1.486 1.373-2.539v0 0 0zM77.666 7.724l2.025-4.973-0.762-0.255-2.024 4.974c-0.038 0.086-0.04 0.176-0.004 0.269 0.038 0.1 0.1 0.169 0.186 0.207v0l4.905 2.543 0.393-0.707-4.901-2.534c-0.088-0.045-0.09 0.045-0.004 0.269 0.086 0.224 0.148 0.293 0.186 0.207zM82.376 21.437l5.86 1.181 0.126-0.819-5.861-1.181c-0.043-0.019-0.105-0.013-0.186 0.018-0.081 0.031-0.147 0.074-0.197 0.129v0l-3.626 4.817 0.64 0.525 3.627-4.816c0.038-0.086-0.039-0.092-0.232-0.019-0.193 0.074-0.243 0.129-0.151 0.165zM72.241-6.153l-5.917-1.159-0.125 0.819 5.917 1.159c0.074 0.007 0.152-0.005 0.232-0.036 0.081-0.031 0.131-0.068 0.151-0.111v0l3.57-4.795-0.641-0.526-3.57 4.796c-0.057 0.057 0.012 0.049 0.205-0.025 0.193-0.074 0.252-0.115 0.178-0.122zM98.813 15.202l9.433-0.199-0.013-0.873-9.428 0.186c-0.074-0.007-0.149 0.011-0.225 0.054-0.074 0.05-0.13 0.118-0.168 0.204v0l-1.797 4.115 0.801 0.357 1.796-4.115c0.038-0.086-0.039-0.074-0.232 0.036-0.2 0.112-0.255 0.191-0.167 0.235zM88.748-12.372l-3.507-2.083-0.393 0.707 3.508 2.083c0.086 0.038 0.172 0.048 0.257 0.03 0.088-0.012 0.157-0.046 0.208-0.101v0l6.754-6.016-0.547-0.561-6.754 6.015c-0.05 0.055 0.04 0.067 0.27 0.036 0.222-0.035 0.29-0.072 0.204-0.11zM77.137 7.21v0l0.297 0.775c0.857-0.371 1.719-0.748 2.587-1.131 0.859-0.386 1.74-0.77 2.643-1.152 0.903-0.382 1.816-0.767 2.737-1.156v0l-0.297-0.775c-0.853 0.363-1.716 0.729-2.588 1.099-0.872 0.37-1.756 0.755-2.652 1.155-0.896 0.401-1.805 0.795-2.727 1.185zM78.963 26.226v0l9.487-3.636c0.162-0.062 0.252-0.161 0.272-0.297 0.019-0.136-0.026-0.254-0.136-0.355v0c-0.477-0.481-0.966-1.104-1.466-1.869-0.494-0.767-1.095-1.936-1.804-3.507-0.715-1.568-1.63-3.759-2.744-6.573v0l-0.58 0.5c2.704 1.391 4.949 2.565 6.737 3.523 1.779 0.953 3.202 1.743 4.271 2.368 1.066 0.62 1.872 1.139 2.417 1.558 0.544 0.413 0.961 0.803 1.252 1.17v0c0.069 0.088 0.154 0.141 0.254 0.16 0.098 0.013 0.178 0.007 0.239-0.017v0l11.224-4.302c0.193-0.074 0.287-0.21 0.283-0.408 0.002-0.201-0.098-0.32-0.297-0.357v0c-0.825-0.234-1.775-0.523-2.85-0.868-1.068-0.347-2.434-0.884-4.097-1.61-1.655-0.722-3.773-1.713-6.355-2.973-2.582-1.26-5.789-2.904-9.623-4.933v0l0.186 0.485c1.639-3.976 2.995-7.238 4.069-9.783 1.065-2.55 1.946-4.59 2.644-6.122 0.702-1.54 1.306-2.778 1.811-3.714 0.508-0.93 1.015-1.749 1.521-2.457v0c0.106-0.19 0.094-0.361-0.035-0.511-0.129-0.15-0.29-0.189-0.483-0.115v0l-10.262 3.933c-0.093 0.036-0.166 0.089-0.218 0.158-0.043 0.074-0.061 0.166-0.054 0.278v0c0.029 0.467-0.014 1.026-0.129 1.677-0.121 0.653-0.389 1.566-0.803 2.739-0.414 1.173-1.005 2.734-1.771 4.684-0.76 1.948-1.758 4.429-2.994 7.444v0l0.762-0.024c-1.076-2.9-1.881-5.169-2.416-6.806-0.535-1.637-0.875-2.906-1.02-3.807-0.139-0.903-0.169-1.681-0.09-2.332v0c0-0.186-0.052-0.323-0.158-0.411-0.105-0.088-0.239-0.101-0.4-0.04v0l-9.488 3.636c-0.131 0.05-0.215 0.147-0.253 0.29-0.038 0.143 0.008 0.282 0.139 0.418v0c0.427 0.35 0.844 0.815 1.252 1.395 0.408 0.579 0.865 1.418 1.371 2.515 0.51 1.09 1.141 2.54 1.893 4.351 0.751 1.811 1.674 4.145 2.769 7.003v0c1.157 3.019 2.083 5.509 2.778 7.471 0.695 1.961 1.229 3.552 1.603 4.772 0.381 1.218 0.616 2.184 0.705 2.9 0.091 0.722 0.101 1.371 0.029 1.948v0c-0.018 0.157 0.038 0.285 0.169 0.385 0.129 0.093 0.258 0.115 0.389 0.066zM88.157 21.824l-9.487 3.636 0.558 0.45c0.069-0.583 0.052-1.252-0.051-2.005-0.101-0.747-0.326-1.746-0.677-2.996-0.348-1.244-0.879-2.872-1.593-4.883-0.72-2.009-1.67-4.554-2.851-7.635v0c-1.119-2.92-2.06-5.311-2.825-7.175-0.77-1.861-1.43-3.339-1.978-4.435-0.549-1.096-1.03-1.943-1.445-2.542-0.412-0.592-0.839-1.081-1.281-1.469v0l-0.114 0.708 9.487-3.636-0.558-0.45c-0.064 0.503-0.066 1.075-0.006 1.716 0.06 0.641 0.219 1.437 0.476 2.388 0.251 0.953 0.628 2.18 1.131 3.679 0.506 1.505 1.163 3.37 1.973 5.594v0c0.062 0.162 0.186 0.243 0.371 0.243 0.188 0.006 0.322-0.081 0.404-0.261v0c1.306-3.113 2.342-5.663 3.108-7.649 0.767-1.986 1.351-3.563 1.753-4.731 0.402-1.168 0.666-2.09 0.793-2.767 0.129-0.67 0.168-1.257 0.118-1.759v0l-0.272 0.436 10.262-3.933-0.518-0.625c-0.489 0.737-0.99 1.572-1.504 2.503-0.505 0.936-1.103 2.179-1.794 3.729-0.695 1.559-1.583 3.619-2.664 6.183-1.072 2.567-2.441 5.862-4.105 9.884v0c-0.1 0.224-0.038 0.386 0.186 0.485v0c3.876 2.048 7.108 3.709 9.695 4.981 2.586 1.272 4.718 2.269 6.393 2.99 1.676 0.721 3.051 1.255 4.126 1.599 1.068 0.347 2.015 0.638 2.84 0.872v0l-0.015-0.766-11.224 4.302 0.503 0.139c-0.305-0.404-0.742-0.819-1.311-1.243-0.563-0.427-1.385-0.958-2.464-1.594-1.073-0.638-2.512-1.44-4.316-2.404-1.805-0.965-4.103-2.165-6.896-3.601v0c-0.193-0.112-0.355-0.096-0.485 0.047-0.131 0.143-0.165 0.295-0.103 0.457v0c1.156 2.905 2.108 5.164 2.854 6.777 0.744 1.607 1.374 2.793 1.889 3.56 0.513 0.76 1.006 1.378 1.481 1.853v0z" opacity="1" transform="matrix(1,0,0,1,0,0)" fill="#000000" class="wordmark-text-0" data-fill-palette-color="primary" id="text-0"></path></svg></g></svg></g></svg></g></svg></g><g transform="matrix(1,0,0,1,148.98823833508396,0)"><svg viewBox="0 0 97.54352332983204 168.12443708630317" height="168.12443708630317" width="97.54352332983204"><g><svg xmlns="http://www.w3.org/2000/svg" xmlns:xlink="http://www.w3.org/1999/xlink" version="1.1" x="0" y="0" viewBox="21.679106830508623 1 56.85827385947761 98" enable-background="new 0 0 100 100" xml:space="preserve" height="168.12443708630317" width="97.54352332983204" class="icon-icon-0" data-fill-palette-color="accent" id="icon-0"><g fill="#000000" data-fill-palette-color="accent"><path fill-rule="evenodd" clip-rule="evenodd" d="M30.545 28.822c-1.165 7.217 0.33 14.85 6.5 19.041C30.758 19.81 45.756 8.664 59.646 1c-16.18 23.046 16.896 23.644 18.777 50.13C80.028 73.71 64.507 91.317 46.639 99c0.206-22.825-22.55-25.933-24.838-44.603C20.905 47.094 25.062 33.766 30.545 28.822z" fill="#000000" data-fill-palette-color="accent"></path></g></svg></g></svg></g><g></g></svg></g><defs></defs></svg><rect width="373.59616770182265" height="327.2" fill="none" stroke="none" visibility="hidden"></rect></g></svg></g></svg>